<svg xmlns="http://www.w3.org/2000/svg" viewBox="0 0 400 300" width="400" height="300">
  <defs>
    <filter id="ink" x="-6%" y="-6%" width="112%" height="112%">
      <feTurbulence type="fractalNoise" baseFrequency="0.026" numOctaves="2" seed="27" result="n"></feTurbulence>
      <feDisplacementMap in="SourceGraphic" in2="n" scale="3.4" xChannelSelector="R" yChannelSelector="G"></feDisplacementMap>
    </filter>
  </defs>
  <rect width="400" height="300" fill="#F4ECD8"></rect>
  <circle cx="200" cy="200" r="90" fill="#9FCB6E" opacity="0.2"></circle>
  <g filter="url(#ink)" fill="none" stroke="#24482D" stroke-width="2.3" stroke-linecap="round" stroke-linejoin="round">
    <path d="M160 22 H240"></path>
    <path d="M200 22 V52"></path>
    <path d="M142 52 H258 A6 6 0 0 1 264 58 V92 A6 6 0 0 1 258 98 H142 A6 6 0 0 1 136 92 V58 A6 6 0 0 1 142 52 Z"></path>
    <path d="M172 108 V142 M164 132 L172 144 L180 132"></path>
    <path d="M228 108 V142 M220 132 L228 144 L236 132"></path>
    <path d="M108 176 H292 V246 H108 Z"></path>
    <circle cx="200" cy="211" r="18"></circle>
    <path d="M68 138 C104 122 128 154 164 140"></path>
    <path d="M236 140 C272 126 300 156 336 142"></path>
    <path d="M84 85 V107 M73 96 H95"></path>
    <path d="M322 91 V109 M313 100 H331"></path>
  </g>
</svg>